<svg viewBox="0 0 155 132" xmlns="http://www.w3.org/2000/svg">
<path fill-rule="evenodd" clip-rule="evenodd" d="M2.85463 5.07833C4.42468 7.87111 9.48629 15.9842 14.1022 23.1061C35.4729 56.0817 40.7176 64.9416 40.1117 67.0462C39.7602 68.2672 30.6038 83.16 19.7643 100.143C8.92342 117.124 0.0552081 131.24 0.0552081 131.51C0.0552081 131.779 5.41304 132 11.9625 132H23.8699L53.6241 85.25L83.3769 38.5L71.6756 38.1358C61.6372 37.8229 59.7454 38.0832 58.3517 39.9691C53.1043 47.0666 54.2691 48.0541 38.5766 23.2149L23.9103 0H11.9545H0L2.85463 5.07833ZM49.5899 3.97222C51.0333 6.15633 53.861 10.5466 55.8714 13.7268L59.5286 19.5091L88.9838 19.8379L118.44 20.1667L112.952 28.7222C80.7848 78.87 48.5302 130.043 48.5302 130.928C48.5302 131.57 68.3968 131.896 95.9373 131.71L143.344 131.389L149.027 122.833C152.151 118.128 154.752 113.865 154.807 113.361C154.861 112.858 139.151 112.444 119.896 112.444C100.641 112.444 84.8864 112.113 84.8864 111.707C84.8864 111.302 99.9513 87.2386 118.362 58.2352C136.775 29.2307 152.551 4.26189 153.419 2.75L155 0H100.983H46.9641L49.5899 3.97222Z" fill="url(#paint0_linear_3_3)"/>
<defs>
<linearGradient id="paint0_linear_3_3" x1="-1.27009e-06" y1="4.27778" x2="131.133" y2="144.716" gradientUnits="userSpaceOnUse">
<stop stop-color="#262A5F"/>
<stop offset="0.33125" stop-color="#28508D"/>
<stop offset="0.659375" stop-color="#262A5F"/>
<stop offset="0.992708" stop-color="#28508D"/>
</linearGradient>
</defs>
</svg>
